<?xml version="1.0" encoding="UTF-8" standalone="no"?>
<!-- Created with Inkscape (http://www.inkscape.org/) -->

<svg
   xmlns:dc="http://purl.org/dc/elements/1.1/"
   xmlns:cc="http://creativecommons.org/ns#"
   xmlns:rdf="http://www.w3.org/1999/02/22-rdf-syntax-ns#"
   xmlns:svg="http://www.w3.org/2000/svg"
   xmlns="http://www.w3.org/2000/svg"
   xmlns:xlink="http://www.w3.org/1999/xlink"
   xmlns:sodipodi="http://sodipodi.sourceforge.net/DTD/sodipodi-0.dtd"
   xmlns:inkscape="http://www.inkscape.org/namespaces/inkscape"
   width="48"
   height="48"
   id="svg2"
   version="1.1"
   inkscape:version="0.48.4 r9939"
   sodipodi:docname="bucket.svg"
   inkscape:export-filename="/usr/src/clj-simplegdx/resources/bucket.png"
   inkscape:export-xdpi="90"
   inkscape:export-ydpi="90">
  <defs
     id="defs4">
    <marker
       id="ArrowStart"
       viewBox="0 0 10 10"
       orient="auto"
       markerHeight="3"
       markerWidth="4"
       refY="5"
       refX="10"
       markerUnits="strokeWidth">
      <path
         id="path10"
         d="M 10,0 L 0,5 L 10,10 L 10,0 z" />
    </marker>
    <marker
       id="ArrowEnd"
       viewBox="0 0 10 10"
       orient="auto"
       markerHeight="3"
       markerWidth="4"
       refY="5"
       refX="0"
       markerUnits="strokeWidth">
      <path
         id="path7"
         d="M 0,0 L 10,5 L 0,10 L 0,0 z" />
    </marker>
    <radialGradient
       r="267.17188"
       fy="603.92657"
       fx="407.95535"
       cy="603.92657"
       cx="407.95535"
       gradientTransform="matrix(1.24431,-0.22337629,0.06164525,0.34339268,-133.13561,334.68127)"
       gradientUnits="userSpaceOnUse"
       id="radialGradient4139"
       xlink:href="#linearGradient3906"
       inkscape:collect="always" />
    <radialGradient
       r="133.51562"
       fy="613.35162"
       fx="434.07812"
       cy="613.35162"
       cx="434.07812"
       gradientTransform="matrix(0.68147333,-0.1261239,0.60819274,3.2861901,-234.77054,-1347.4908)"
       gradientUnits="userSpaceOnUse"
       id="radialGradient4137"
       xlink:href="#linearGradient3891"
       inkscape:collect="always" />
    <linearGradient
       y2="342.36218"
       x2="395.71429"
       y1="445.21933"
       x1="398.57144"
       gradientUnits="userSpaceOnUse"
       id="linearGradient4135"
       xlink:href="#linearGradient3873"
       inkscape:collect="always" />
    <linearGradient
       y2="391.58282"
       x2="647.10052"
       y1="397.10272"
       x1="116.67262"
       gradientTransform="matrix(0.90581281,0,0,0.90581281,36.154505,37.401992)"
       gradientUnits="userSpaceOnUse"
       id="linearGradient4133"
       xlink:href="#linearGradient3777"
       inkscape:collect="always" />
    <radialGradient
       r="267.18536"
       fy="391.23151"
       fx="383.85797"
       cy="391.23151"
       cx="383.85797"
       gradientTransform="matrix(1.0026734,-0.03208045,0.00745139,0.2328929,-3.9414154,317.13312)"
       gradientUnits="userSpaceOnUse"
       id="radialGradient4131"
       xlink:href="#linearGradient3851"
       inkscape:collect="always" />
    <radialGradient
       r="130.71429"
       fy="599.14789"
       fx="510"
       cy="599.14789"
       cx="510"
       gradientTransform="matrix(0.97605591,0.00653792,-0.00929528,1.3877044,17.780736,-235.6266)"
       gradientUnits="userSpaceOnUse"
       id="radialGradient4129"
       xlink:href="#linearGradient3948"
       inkscape:collect="always" />
    <linearGradient
       y2="594.14789"
       x2="399.28574"
       y1="604.14789"
       x1="617.14288"
       gradientTransform="matrix(1.0138504,0,0,1,-8.8741589,0)"
       gradientUnits="userSpaceOnUse"
       id="linearGradient4127"
       xlink:href="#linearGradient3777"
       inkscape:collect="always" />
    <linearGradient
       y2="609.14789"
       x2="390"
       y1="626.29071"
       x1="168.57143"
       gradientUnits="userSpaceOnUse"
       id="linearGradient4125"
       xlink:href="#linearGradient3777"
       inkscape:collect="always" />
    <linearGradient
       y2="356.49335"
       x2="639.42651"
       y1="358.13483"
       x1="643.97223"
       gradientUnits="userSpaceOnUse"
       id="linearGradient4123"
       xlink:href="#linearGradient3934"
       inkscape:collect="always" />
    <linearGradient
       y2="385.40897"
       x2="105.05586"
       y1="361.67038"
       x1="149.75511"
       gradientUnits="userSpaceOnUse"
       id="linearGradient4121"
       xlink:href="#linearGradient3920"
       inkscape:collect="always" />
    <filter
       color-interpolation-filters="sRGB"
       id="filter4093"
       inkscape:collect="always">
      <feGaussianBlur
         id="feGaussianBlur4095"
         stdDeviation="16.645354"
         inkscape:collect="always" />
    </filter>
    <filter
       color-interpolation-filters="sRGB"
       id="filter3835"
       inkscape:collect="always">
      <feGaussianBlur
         id="feGaussianBlur3837"
         stdDeviation="3.9544944"
         inkscape:collect="always" />
    </filter>
    <filter
       color-interpolation-filters="sRGB"
       id="filter3815"
       inkscape:collect="always">
      <feGaussianBlur
         id="feGaussianBlur3817"
         stdDeviation="3.1168626"
         inkscape:collect="always" />
    </filter>
    <filter
       color-interpolation-filters="sRGB"
       id="filter3811"
       inkscape:collect="always">
      <feGaussianBlur
         id="feGaussianBlur3813"
         stdDeviation="3.4956826"
         inkscape:collect="always" />
    </filter>
    <linearGradient
       id="linearGradient3777">
      <stop
         id="stop3779"
         offset="0"
         style="stop-color:#6f3711;stop-opacity:1;" />
      <stop
         style="stop-color:#9f4d15;stop-opacity:1;"
         offset="0.07424746"
         id="stop3799" />
      <stop
         style="stop-color:#f6a974;stop-opacity:1;"
         offset="0.10583691"
         id="stop3797" />
      <stop
         style="stop-color:#6f3711;stop-opacity:1;"
         offset="0.14989111"
         id="stop3795" />
      <stop
         style="stop-color:#9f4d15;stop-opacity:1;"
         offset="0.24227361"
         id="stop3793" />
      <stop
         style="stop-color:#f6a974;stop-opacity:1;"
         offset="0.40778974"
         id="stop3791" />
      <stop
         style="stop-color:#6f3711;stop-opacity:1;"
         offset="0.59434152"
         id="stop3789" />
      <stop
         style="stop-color:#9f4d15;stop-opacity:1;"
         offset="0.63688177"
         id="stop3787" />
      <stop
         style="stop-color:#f6a974;stop-opacity:1;"
         offset="0.74691957"
         id="stop3785" />
      <stop
         id="stop3781"
         offset="1"
         style="stop-color:#9f4d15;stop-opacity:1;" />
    </linearGradient>
    <linearGradient
       id="linearGradient3839">
      <stop
         id="stop3841"
         offset="0"
         style="stop-color:#28170b;stop-opacity:1;" />
      <stop
         id="stop3843"
         offset="1"
         style="stop-color:#28170b;stop-opacity:0;" />
    </linearGradient>
    <linearGradient
       id="linearGradient3851">
      <stop
         id="stop3853"
         offset="0"
         style="stop-color:#502d16;stop-opacity:1;" />
      <stop
         style="stop-color:#b76631;stop-opacity:1;"
         offset="0.88896006"
         id="stop3861" />
      <stop
         style="stop-color:#f2ddd0;stop-opacity:1;"
         offset="0.96516085"
         id="stop3859" />
      <stop
         id="stop3855"
         offset="1"
         style="stop-color:#502d16;stop-opacity:1;" />
    </linearGradient>
    <linearGradient
       id="linearGradient3873"
       inkscape:collect="always">
      <stop
         id="stop3875"
         offset="0"
         style="stop-color:#4d4d4d;stop-opacity:1;" />
      <stop
         id="stop3877"
         offset="1"
         style="stop-color:#4d4d4d;stop-opacity:0;" />
    </linearGradient>
    <linearGradient
       id="linearGradient3891">
      <stop
         id="stop3893"
         offset="0"
         style="stop-color:#ffffff;stop-opacity:1;" />
      <stop
         id="stop3895"
         offset="1"
         style="stop-color:#ffffff;stop-opacity:0;" />
    </linearGradient>
    <linearGradient
       id="linearGradient3906"
       inkscape:collect="always">
      <stop
         id="stop3908"
         offset="0"
         style="stop-color:#ffffff;stop-opacity:1;" />
      <stop
         id="stop3910"
         offset="1"
         style="stop-color:#ffffff;stop-opacity:0;" />
    </linearGradient>
    <linearGradient
       id="linearGradient3920"
       inkscape:collect="always">
      <stop
         id="stop3922"
         offset="0"
         style="stop-color:#ffffff;stop-opacity:1;" />
      <stop
         id="stop3924"
         offset="1"
         style="stop-color:#ffffff;stop-opacity:0;" />
    </linearGradient>
    <linearGradient
       id="linearGradient3934"
       inkscape:collect="always">
      <stop
         id="stop3936"
         offset="0"
         style="stop-color:#ffffff;stop-opacity:1;" />
      <stop
         id="stop3938"
         offset="1"
         style="stop-color:#ffffff;stop-opacity:0;" />
    </linearGradient>
    <linearGradient
       id="linearGradient3948"
       inkscape:collect="always">
      <stop
         id="stop3950"
         offset="0"
         style="stop-color:#ffffff;stop-opacity:1;" />
      <stop
         id="stop3952"
         offset="1"
         style="stop-color:#ffffff;stop-opacity:0;" />
    </linearGradient>
  </defs>
  <sodipodi:namedview
     id="base"
     pagecolor="#ffffff"
     bordercolor="#666666"
     borderopacity="1.0"
     inkscape:pageopacity="0.0"
     inkscape:pageshadow="2"
     inkscape:zoom="5.6"
     inkscape:cx="10.96085"
     inkscape:cy="26.702475"
     inkscape:document-units="px"
     inkscape:current-layer="layer1"
     showgrid="false"
     inkscape:window-width="1360"
     inkscape:window-height="727"
     inkscape:window-x="1918"
     inkscape:window-y="20"
     inkscape:window-maximized="1" />
  <metadata
     id="metadata7">
    <rdf:RDF>
      <cc:Work
         rdf:about="">
        <dc:format>image/svg+xml</dc:format>
        <dc:type
           rdf:resource="http://purl.org/dc/dcmitype/StillImage" />
        <dc:title></dc:title>
      </cc:Work>
    </rdf:RDF>
  </metadata>
  <g
     inkscape:label="Ebene 1"
     inkscape:groupmode="layer"
     id="layer1"
     transform="translate(0,-1004.3622)">
    <g
       id="g4160"
       transform="matrix(0.05565023,0,0,0.05565023,-0.81598302,1002.5156)">
      <g
         transform="translate(0,-152.36218)"
         id="layer1-3"
         inkscape:label="Layer 1" />
      <g
         transform="translate(0,-152.36218)"
         inkscape:label="above"
         id="layer2">
        <g
           transform="matrix(1.3419546,0,0,1.3419546,-27.645713,-132.29702)"
           id="g4097">
          <path
             style="fill:#4d4d4d;stroke:none;filter:url(#filter4093)"
             d="m 553.37189,320.48846 c -6.23287,-0.0349 -13.53227,1.09537 -22.28125,3.8125 l -9.5625,33.59375 c -0.24648,-0.0615 -0.50262,-0.12618 -0.75,-0.1875 -3.82876,-0.94902 -7.80731,-1.85786 -11.84375,-2.75 -1.51637,-0.33504 -3.01833,-0.6732 -4.5625,-1 -5.83239,-1.23467 -11.86174,-2.41783 -18.0625,-3.53125 -2.8161,-0.50542 -5.67708,-1.0205 -8.5625,-1.5 -0.38043,-0.0632 -0.77465,-0.12471 -1.15625,-0.1875 -5.78573,-0.95141 -11.74576,-1.84332 -17.78125,-2.6875 -7.60558,-1.06399 -15.43279,-2.05188 -23.375,-2.9375 -0.0415,-0.005 -0.0835,0.005 -0.125,0 -0.28081,-0.0313 -0.56256,-0.0627 -0.84375,-0.0937 -1.82824,-0.20165 -3.68754,-0.40184 -5.53125,-0.59375 -0.40336,-0.042 -0.81468,-0.0835 -1.21875,-0.125 -1.80476,-0.18542 -3.6189,-0.35525 -5.4375,-0.53125 -10.22444,-0.99023 -20.63579,-1.84953 -31.21875,-2.53125 -0.39413,-0.0254 -0.79297,-0.0376 -1.1875,-0.0625 -10.94898,-0.69229 -22.03771,-1.22021 -33.21875,-1.5625 -0.67647,-0.0207 -1.35422,-0.0431 -2.03125,-0.0625 -3.17937,-0.091 -6.37279,-0.15711 -9.5625,-0.21875 -0.45732,-0.009 -0.91751,-0.023 -1.375,-0.0312 -13.39284,-0.24081 -26.87019,-0.20545 -40.28125,0.0937 -0.74976,0.0167 -1.5006,0.0128 -2.25,0.0312 -0.45795,0.0113 -0.9172,0.0193 -1.375,0.0312 -2.96438,0.0773 -5.91834,0.1764 -8.875,0.28125 -9.44295,0.33502 -18.81878,0.81315 -28.125,1.4375 -1.15799,0.0776 -2.31364,0.16778 -3.46875,0.25 -9.50084,0.67673 -18.90394,1.50591 -28.15625,2.5 -0.59492,0.0639 -1.18757,0.12228 -1.78125,0.1875 -2.38605,0.26228 -4.75994,0.55968 -7.125,0.84375 -1.23175,0.14786 -2.46178,0.28368 -3.6875,0.4375 -2.32319,0.29171 -4.63718,0.59298 -6.9375,0.90625 -0.52343,0.0712 -1.04031,0.14639 -1.5625,0.21875 -2.42766,0.33661 -4.85015,0.67021 -7.25,1.03125 -1.59279,0.23952 -3.17014,0.49963 -4.75,0.75 -1.65804,0.26287 -3.32557,0.50635 -4.96875,0.78125 -1.75679,0.29378 -3.47969,0.62986 -5.21875,0.9375 -1.34185,0.23745 -2.70036,0.44174 -4.03125,0.6875 -1.22936,0.22696 -2.43653,0.48466 -3.65625,0.71875 -1.80239,0.34599 -3.62567,0.66959 -5.40625,1.03125 -0.18672,0.0379 -0.37603,0.0869 -0.5625,0.125 -5.53451,1.13087 -10.9456,2.33983 -16.25,3.625 -0.39211,0.095 -0.79673,0.18543 -1.1875,0.28125 -0.18778,0.0461 -0.37503,0.10999 -0.5625,0.15625 -0.51592,0.12728 -1.0177,0.24623 -1.53125,0.375 -1.73348,0.43477 -3.4504,0.89183 -5.15625,1.34375 -0.7204,0.19083 -1.4409,0.3686 -2.15625,0.5625 -2.09692,0.5684 -4.16647,1.15501 -6.21875,1.75 -0.30757,0.0892 -0.63096,0.16024 -0.9375,0.25 -0.54129,0.15853 -1.08694,0.3396 -1.625,0.5 -0.93929,0.28001 -1.88319,0.558 -2.8125,0.84375 -0.47048,0.14471 -0.93836,0.29131 -1.40625,0.4375 -1.23956,0.38719 -2.46645,0.78991 -3.6875,1.1875 -0.16437,0.0535 -0.33597,0.10254 -0.5,0.15625 -0.59385,0.19446 -1.19189,0.39681 -1.78125,0.59375 -1.16509,0.38941 -2.3215,0.7571 -3.46875,1.15625 -0.11469,0.0399 -0.22924,0.085 -0.34375,0.125 -0.84054,0.29363 -1.66927,0.60735 -2.5,0.90625 -0.78564,0.28261 -1.56702,0.5564 -2.34375,0.84375 -1.91396,0.70816 -3.79775,1.41916 -5.65625,2.15625 -0.6422,0.25465 -1.27083,0.52312 -1.90625,0.78125 -0.69589,0.28271 -1.40609,0.55686 -2.09375,0.84375 -0.0213,0.009 -0.0412,0.0223 -0.0625,0.0312 -1.09836,0.45863 -2.17302,0.9369 -3.25,1.40625 -2.36263,1.02962 -4.68114,2.07452 -6.937502,3.15625 -0.07491,0.0359 -0.14396,0.089 -0.21875,0.125 -1.08914,0.52385 -2.18654,1.02636 -3.25,1.5625 -0.33117,0.16696 -0.6401,0.36309 -0.96875,0.53125 -0.65814,0.33675 -1.32082,0.65844 -1.96875,1 -0.20997,0.1107 -0.41611,0.23255 -0.625,0.34375 -2.09272,1.11408 -4.14317,2.241 -6.125,3.40625 -0.11575,0.068 -0.22839,0.15054 -0.34375,0.21875 -0.64275,0.3802 -1.27558,0.77059 -1.90625,1.15625 -1.40892,0.86159 -2.80878,1.73599 -4.15625,2.625 -0.48294,0.31871 -0.9626,0.64649 -1.4375,0.96875 -0.76251,0.51747 -1.50848,1.03586 -2.25,1.5625 -0.13408,0.0952 -0.27286,0.18572 -0.40625,0.28125 -0.52555,0.37638 -1.04777,0.7752 -1.5625,1.15625 -0.68434,0.50669 -1.36627,1.01626 -2.03125,1.53125 -0.217,0.16807 -0.44133,0.33104 -0.65625,0.5 -0.27377,0.21522 -0.54213,0.43959 -0.8125,0.65625 -0.63028,0.50513 -1.26334,1.01827 -1.875,1.53125 -0.01209,-0.0816 -0.01877,-0.16869 -0.03125,-0.25 -1.74786,-11.38321 -7.41326,-19.72412 -13.15625,-28 -11.48246,-8.93276 -11.27348,-1.42789 -8.0625,10.34375 l 11.59375,50.25 2.28125,0 0.125,-0.59375 0.625,16.78125 c 1.98818,1.90423 4.19963,3.73627 6.59375,5.53125 l 0.3125,8.40625 c 2.29788,2.26835 4.89611,4.44915 7.75,6.5625 12.69064,43.30476 22.46294,79.39086 30.343752,110.8125 l 0,16.34375 c 0.0291,0.10572 0.0638,0.20704 0.0937,0.3125 l 0,6.8125 c 1.76055,6.4147 5.0954,12.37117 9.8125,17.84375 7.40412,32.19803 12.99386,59.89367 18.375,87.09375 l 0,20.78125 0,6.4375 c 10.12812,41.64796 79.37178,63.25235 157.0625,66.75 0.33307,0.015 0.66662,0.0482 1,0.0625 29.69464,1.2761 60.5711,-0.0877 89.84375,-4 0.38704,-0.0517 0.76978,-0.10368 1.15625,-0.15625 7.65225,-1.04173 15.18827,-2.268 22.5625,-3.65625 0.073,-0.0137 0.1458,-0.0175 0.21875,-0.0312 2.49884,-0.47177 4.97852,-0.95744 7.4375,-1.46875 0.35778,-0.0744 0.70561,-0.17481 1.0625,-0.25 7.24118,-1.52625 14.30407,-3.19436 21.125,-5.0625 0.25352,-0.0694 0.49714,-0.14887 0.75,-0.21875 2.13054,-0.58892 4.23007,-1.1903 6.3125,-1.8125 0.40017,-0.11952 0.78917,-0.25426 1.1875,-0.375 1.92937,-0.58504 3.83419,-1.16749 5.71875,-1.78125 0.48972,-0.15936 0.95091,-0.3387 1.4375,-0.5 6.24212,-2.07025 12.26083,-4.26944 17.9375,-6.65625 0.37679,-0.15842 0.75092,-0.30894 1.125,-0.46875 0.64807,-0.27683 1.26642,-0.56277 1.90625,-0.84375 0.40844,-0.17933 0.81371,-0.35022 1.21875,-0.53125 0.58996,-0.26372 1.16736,-0.54519 1.75,-0.8125 0.44593,-0.20453 0.90217,-0.38711 1.34375,-0.59375 0.53359,-0.24973 1.06659,-0.49721 1.59375,-0.75 0.48185,-0.23099 0.96109,-0.45395 1.4375,-0.6875 0.47538,-0.23306 0.93635,-0.48315 1.40625,-0.71875 0.51487,-0.25809 1.02305,-0.52011 1.53125,-0.78125 2.27353,-1.16835 4.45867,-2.36459 6.59375,-3.59375 0.60259,-0.34682 1.19009,-0.67959 1.78125,-1.03125 0.26485,-0.15751 0.51872,-0.31027 0.78125,-0.46875 0.10449,-0.0631 0.20838,-0.12426 0.3125,-0.1875 0.74343,-0.45149 1.46312,-0.91571 2.1875,-1.375 0.64159,-0.40669 1.27987,-0.80594 1.90625,-1.21875 0.17854,-0.11766 0.35396,-0.22559 0.53125,-0.34375 0.19364,-0.12903 0.37036,-0.27663 0.5625,-0.40625 0.60105,-0.40557 1.19501,-0.80739 1.78125,-1.21875 0.67261,-0.47175 1.34721,-0.9269 2,-1.40625 0.0961,-0.0706 0.18553,-0.14798 0.28125,-0.21875 0.69022,-0.51029 1.36387,-1.0124 2.03125,-1.53125 1.50077,-1.1663 2.93071,-2.35312 4.3125,-3.5625 0.6631,-0.58023 1.30262,-1.15987 1.9375,-1.75 9.33966,-8.68119 15.5964,-18.43124 17.90625,-29.21875 l -0.15625,-5.8125 c 0.0457,-0.19979 0.11332,-0.39324 0.15625,-0.59375 l -0.15625,-6.375 c 0.69228,-2.79511 0.83578,-5.63933 0.40625,-8.5 0.27259,-1.79474 0.3113,-3.58529 0.125,-5.40625 3.59661,-29.81508 8.60225,-59.62242 14.4375,-89.4375 3.63078,-5.04674 6.20611,-10.38711 7.5625,-16 l -0.125,-4.0625 c 0.33477,-1.02278 0.6539,-2.05158 0.90625,-3.09375 l -0.28125,-9.875 c 0.0483,-0.85344 0.0369,-1.70336 -0.0312,-2.5625 0.70421,-2.35041 0.99902,-4.72647 0.8125,-7.125 7.86779,-36.13646 16.53343,-72.26979 24.96875,-108.40625 3.1606,-2.59586 6.01425,-5.26236 8.5,-8.03125 l -0.0937,-5.71875 c 3.35719,-2.65696 6.37329,-5.3799 9,-8.21875 l -0.5,-33.34375 c -5.18786,3.2432 -10.76692,6.35961 -16.71875,9.34375 0.42329,-0.2395 0.86275,-0.47822 1.28125,-0.71875 2.79009,-1.60309 5.45997,-3.22748 8.03125,-4.875 2.57793,-1.65233 5.05893,-3.33669 7.40625,-5.03125 -0.34643,-0.46728 -0.7375,-0.94304 -1.125,-1.40625 -0.0325,-0.0387 -0.061,-0.0863 -0.0937,-0.125 -0.36908,-0.43687 -0.75114,-0.87932 -1.15625,-1.3125 -0.0593,-0.0633 -0.12747,-0.1243 -0.1875,-0.1875 -0.38718,-0.40801 -0.76877,-0.81409 -1.1875,-1.21875 -0.089,-0.086 -0.19084,-0.16418 -0.28125,-0.25 -0.39344,-0.37335 -0.79877,-0.75457 -1.21875,-1.125 -0.1306,-0.11511 -0.27311,-0.22892 -0.40625,-0.34375 -0.39124,-0.33742 -0.80573,-0.69632 -1.21875,-1.03125 -1.37038,-1.10992 -2.89639,-2.1994 -4.5,-3.28125 -1.02368,-0.69046 -2.10312,-1.38391 -3.21875,-2.0625 -0.31237,-0.18991 -0.61804,-0.40478 -0.9375,-0.59375 l 13,-39.0625 c -10.68812,-8.86607 -19.86389,-19.36415 -38.5625,-19.46875 z m -0.65625,4.84375 c 14.54485,0.007 25.44579,6.7189 34.4375,16.90625 l -11.375,35.03125 c -0.14656,-0.0798 -0.28967,-0.17037 -0.4375,-0.25 -0.5388,-0.29013 -1.10075,-0.58726 -1.65625,-0.875 -0.2567,-0.1329 -0.52101,-0.27386 -0.78125,-0.40625 -0.61489,-0.31286 -1.24057,-0.62754 -1.875,-0.9375 -0.21173,-0.10339 -0.44237,-0.20943 -0.65625,-0.3125 -0.70982,-0.34204 -1.42293,-0.69283 -2.15625,-1.03125 -0.15566,-0.0719 -0.31204,-0.14705 -0.46875,-0.21875 -0.78541,-0.35914 -1.59475,-0.70752 -2.40625,-1.0625 -0.11308,-0.0495 -0.23017,-0.10687 -0.34375,-0.15625 -1.86446,-0.81049 -3.81551,-1.61807 -5.8125,-2.40625 -2.99129,-1.18044 -6.13181,-2.34035 -9.40625,-3.46875 -0.20371,-0.0702 -0.42023,-0.14875 -0.625,-0.21875 -3.82176,-1.30606 -7.85417,-2.58013 -12.03125,-3.8125 -2.1909,-0.64634 -4.43576,-1.28092 -6.71875,-1.90625 -0.61235,-0.16767 -1.2562,-0.33387 -1.875,-0.5 -1.03042,-0.27659 -2.10824,-0.5402 -3.15625,-0.8125 l 8.5,-30.3125 c 6.9155,-2.24149 13.15229,-3.25258 18.84375,-3.25 z m -502.000002,41.5625 c 0.90078,-0.16998 2.77858,2.4347 4.34375,4.125 6.01442,7.73877 8.4135,16.5095 10.59375,25.34375 -0.38329,0.35373 -0.7816,0.70521 -1.15625,1.0625 -0.09475,0.0904 -0.18705,0.19065 -0.28125,0.28125 -0.66937,0.64386 -1.32769,1.28211 -1.96875,1.9375 -0.04618,0.0472 -0.07897,0.10898 -0.125,0.15625 -0.68456,0.70303 -1.37971,1.40866 -2.03125,2.125 0.3438,0.28035 0.71546,0.53434 1.0625,0.8125 l 0.65625,17.6875 -10.28125,-44.09375 c -1.63919,-6.96517 -1.60731,-9.28752 -0.8125,-9.4375 z m 500.937502,194.4375 0.0625,2.125 c -0.0555,-0.49433 -0.0927,-1.00396 -0.1875,-1.5 0.0447,-0.20729 0.0802,-0.41771 0.125,-0.625 z m -0.84375,3.90625 0.0312,1.4375 c -0.19163,0.43837 -0.40381,0.87622 -0.625,1.3125 0.17982,-0.84464 0.35044,-1.68661 0.53125,-2.53125 0.0158,-0.0739 0.0467,-0.14488 0.0625,-0.21875 z m -22.375,131.375 0.0312,1.03125 c -0.0799,0.26828 -0.12898,0.54495 -0.21875,0.8125 0.0678,-0.6134 0.11846,-1.23035 0.1875,-1.84375 z"
             id="path3982"
             inkscape:connector-curvature="0" />
          <g
             id="g3956">
            <g
               id="g3928">
              <path
                 style="fill:#000000;stroke:none"
                 d="m 118.44039,423.54222 -2.27285,0 -11.61675,-50.25509 c -3.21098,-11.77164 -3.40124,-19.28682 8.08122,-10.35406 6.56342,9.45815 13.00137,19.01389 13.63706,33.0825 l -2.77792,3.53553 c -2.66974,-10.55333 -4.67266,-21.29719 -11.86929,-30.55712 -2.9462,-3.18174 -7.03248,-9.55572 -3.53554,5.30331 l 10.6066,45.45686 0.50508,0 z"
                 id="path3916"
                 inkscape:connector-curvature="0"
                 sodipodi:nodetypes="ccccccccccc" />
              <path
                 sodipodi:nodetypes="ccccccccccc"
                 inkscape:connector-curvature="0"
                 id="path3918"
                 d="m 118.44039,423.54222 -2.27285,0 -11.61675,-50.25509 c -3.21098,-11.77164 -3.40124,-19.28682 8.08122,-10.35406 6.56342,9.45815 13.00137,19.01389 13.63706,33.0825 l -2.77792,3.53553 c -2.66974,-10.55333 -4.67266,-21.29719 -11.86929,-30.55712 -2.9462,-3.18174 -7.03248,-9.55572 -3.53554,5.30331 l 10.6066,45.45686 0.50508,0 z"
                 style="fill:url(#linearGradient4121);fill-opacity:1;stroke:none" />
            </g>
            <g
               id="g3942">
              <path
                 sodipodi:nodetypes="ccccccccc"
                 inkscape:connector-curvature="0"
                 id="path3932"
                 d="m 633.87072,381.87343 14.64721,-43.94164 C 634.2671,326.11036 622.65217,311.4059 587.65624,322.27443 l -11.86929,41.66879 4.04061,0.50508 10.6066,-37.88072 c 24.58845,-7.96974 40.77534,-0.53664 53.28555,13.63706 l -13.13198,40.4061 z"
                 style="fill:#000000;stroke:none" />
              <path
                 style="fill:url(#linearGradient4123);fill-opacity:1;stroke:none"
                 d="m 633.87072,381.87343 14.64721,-43.94164 C 634.2671,326.11036 622.65217,311.4059 587.65624,322.27443 l -11.86929,41.66879 4.04061,0.50508 10.6066,-37.88072 c 24.58845,-7.96974 40.77534,-0.53664 53.28555,13.63706 l -13.13198,40.4061 z"
                 id="path3914"
                 inkscape:connector-curvature="0"
                 sodipodi:nodetypes="ccccccccc" />
            </g>
            <path
               sodipodi:nodetypes="ccccc"
               inkscape:connector-curvature="0"
               id="path3005"
               d="m 124.28571,428.07647 c 46.8131,155.19371 58.66817,224.02051 74.28572,302.14286 51.96219,38.23216 115.96278,49.71235 185,50 l 0,-312.14286 z"
               style="fill:url(#linearGradient4125);fill-opacity:1;stroke:none" />
            <path
               sodipodi:nodetypes="ccccc"
               inkscape:connector-curvature="0"
               id="path3007"
               d="m 379.28571,470.21932 1.44836,310.00001 c 78.19657,-8.11706 158.30472,-13.40592 202.77008,-71.42858 9.35164,-96.90476 35.11573,-193.80952 57.21014,-290.71428 -73.74373,40.20873 -166.81121,47.49604 -261.42858,52.14285 z"
               style="fill:url(#linearGradient4127);fill-opacity:1;stroke:none" />
            <path
               style="opacity:0.52459011;fill:url(#radialGradient4129);fill-opacity:1;stroke:none"
               d="m 379.28571,470.21932 1.44836,310.00001 c 78.19657,-8.11706 158.30472,-13.40592 202.77008,-71.42858 9.35164,-96.90476 35.11573,-193.80952 57.21014,-290.71428 -73.74373,40.20873 -166.81121,47.49604 -261.42858,52.14285 z"
               id="path3946"
               inkscape:connector-curvature="0"
               sodipodi:nodetypes="ccccc" />
            <path
               transform="matrix(0.97990411,0,0,1,8.1119129,0)"
               sodipodi:nodetypes="ccccc"
               inkscape:connector-curvature="0"
               id="path2997"
               d="m 159.28571,561.6479 c 44.62139,120.99982 480.88277,62.46962 452.85715,-12.14286 l 0.71428,25 c -24.2729,98.23081 -426.18595,110.43995 -453.57143,12.85714 z"
               style="fill:#28170b;stroke:none;filter:url(#filter3811)" />
            <path
               style="fill:#28170b;stroke:none;filter:url(#filter3815)"
               d="m 192.46809,694.50505 c 38.66619,120.99982 416.70386,62.46962 392.41855,-12.14286 l 0.61896,25 C 564.47217,805.593 216.19868,817.80214 192.46809,720.21933 z"
               id="path2999"
               inkscape:connector-curvature="0"
               sodipodi:nodetypes="ccccc" />
            <path
               transform="matrix(0.97024537,0,0,1,10.451286,0)"
               style="fill:#28170b;stroke:none;filter:url(#filter3835)"
               d="m 117.68277,413.74272 1.51523,39.90102 c 76.10181,72.8886 457.57883,65.65787 532.35039,-15.15228 l -0.50507,-33.33504 c -117.81415,73.65182 -442.31892,80.78361 -533.36055,8.5863 z"
               id="path3829"
               inkscape:connector-curvature="0"
               sodipodi:nodetypes="ccccc" />
            <path
               sodipodi:nodetypes="ccccc"
               inkscape:connector-curvature="0"
               id="path3001"
               d="m 117.68277,399.80364 1.51523,39.90102 c 76.10181,72.8886 457.57883,65.65787 532.35039,-15.15228 l -0.50507,-33.33504 c -117.81415,73.65182 -442.31892,80.78361 -533.36055,8.5863 z"
               style="fill:#552200;stroke:none" />
            <path
               sodipodi:nodetypes="ccc"
               inkscape:connector-curvature="0"
               id="path3003"
               d="m 116.67262,399.91171 c 119.32536,97.30447 434.2184,62.33281 534.3707,-9.96854 -45.35373,-61.17526 -445.31631,-87.94357 -534.3707,9.96854 z"
               style="fill:url(#radialGradient4131);fill-opacity:1;stroke:none" />
            <path
               style="fill:#552200;stroke:none"
               d="m 164.28572,568.79076 c 43.63824,120.99982 470.28739,62.46962 442.87925,-12.14286 l 0.69855,25 c -23.73808,98.23081 -416.79571,110.43995 -443.5778,12.85714 z"
               id="path3809"
               inkscape:connector-curvature="0"
               sodipodi:nodetypes="ccccc" />
            <path
               sodipodi:nodetypes="ccccc"
               inkscape:connector-curvature="0"
               id="path3819"
               d="m 192.46809,700.93362 c 38.66619,120.99982 416.70386,62.46962 392.41855,-12.14286 l 0.61896,25 C 564.47217,812.02157 216.19868,824.23071 192.46809,726.6479 z"
               style="fill:#552200;stroke:none" />
            <path
               style="fill:url(#linearGradient4133);fill-opacity:1;stroke:none"
               d="m 141.83806,399.09174 c 108.08644,75.91809 393.32059,48.63279 484.03982,-7.77757 -41.08199,-47.72966 -403.37321,-68.61461 -484.03982,7.77757 z"
               id="path3847"
               inkscape:connector-curvature="0"
               sodipodi:nodetypes="ccc" />
            <path
               sodipodi:nodetypes="ccc"
               inkscape:connector-curvature="0"
               id="path3863"
               d="m 141.83806,399.09174 c 108.08644,75.91809 393.32059,48.63279 484.03982,-7.77757 -41.08199,-47.72966 -403.37321,-68.61461 -484.03982,7.77757 z"
               style="fill:url(#linearGradient4135);fill-opacity:1;stroke:none" />
            <path
               inkscape:connector-curvature="0"
               id="path3881"
               d="m 535.5,432.78125 c -71.96419,15.26394 -157.98193,20.77554 -234.9375,15.8125 l 4.75,39.875 C 383.47633,493.01405 470.72754,487.76737 539.65625,473 L 535.5,432.78125 z m 18.25,176.3125 c -58.36042,20.46074 -149.97392,32.72935 -230.625,28.375 l 2.75,23.0625 c 80.78887,5.02416 172.38339,-5.16862 230.1875,-29.21875 L 553.75,609.09375 z m 11.96875,115.75 C 523.95548,754.17625 424.94789,774.33961 338.9375,769.875 L 341.71875,793 c 86.26501,5.2825 185.24278,-12.2314 225.875,-50 l -1.875,-18.15625 z"
               style="opacity:0.5286885;fill:url(#radialGradient4137);fill-opacity:1;stroke:none" />
            <path
               inkscape:connector-curvature="0"
               id="path3901"
               d="m 378.3125,335.125 c -109.82768,0.40298 -219.88075,18.88495 -261.625,64.78125 119.32536,97.30447 434.19145,62.3326 534.34375,-9.96875 C 626.93708,357.43814 502.78387,334.66829 378.3125,335.125 z m 0.5,13.40625 c 112.74776,-0.35633 225.23769,17.42487 247.0625,42.78125 -90.71923,56.41036 -375.94481,83.69934 -484.03125,7.78125 37.81247,-35.80883 137.48543,-50.24809 236.96875,-50.5625 z"
               style="fill:url(#radialGradient4139);fill-opacity:1;stroke:none" />
          </g>
        </g>
      </g>
    </g>
  </g>
</svg>
